<?xml version="1.0" encoding="UTF-8" standalone="no"?>
<!-- Created with Inkscape (http://www.inkscape.org/) -->

<svg
   xmlns:dc="http://purl.org/dc/elements/1.1/"
   xmlns:cc="http://creativecommons.org/ns#"
   xmlns:rdf="http://www.w3.org/1999/02/22-rdf-syntax-ns#"
   xmlns:svg="http://www.w3.org/2000/svg"
   xmlns="http://www.w3.org/2000/svg"
   xmlns:sodipodi="http://sodipodi.sourceforge.net/DTD/sodipodi-0.dtd"
   xmlns:inkscape="http://www.inkscape.org/namespaces/inkscape"
   width="210mm"
   height="297mm"
   viewBox="0 0 210 297"
   version="1.1"
   id="svg8"
   inkscape:version="0.92.5 (2060ec1f9f, 2020-04-08)"
   sodipodi:docname="exampleHeatTrasnfer.svg"
   inkscape:export-filename="/home/nikoscham/exampleHeatTrasnfer.png"
   inkscape:export-xdpi="300"
   inkscape:export-ydpi="300">
  <defs
     id="defs2">
    <marker
       inkscape:stockid="Arrow1Mstart"
       orient="auto"
       refY="0.0"
       refX="0.0"
       id="Arrow1Mstart"
       style="overflow:visible"
       inkscape:isstock="true">
      <path
         id="path839"
         d="M 0.0,0.0 L 5.0,-5.0 L -12.5,0.0 L 5.0,5.0 L 0.0,0.0 z "
         style="fill-rule:evenodd;stroke:#000000;stroke-width:1pt;stroke-opacity:1;fill:#000000;fill-opacity:1"
         transform="scale(0.4) translate(10,0)" />
    </marker>
    <marker
       inkscape:stockid="Arrow1Mend"
       orient="auto"
       refY="0.0"
       refX="0.0"
       id="Arrow1Mend"
       style="overflow:visible;"
       inkscape:isstock="true">
      <path
         id="path842"
         d="M 0.0,0.0 L 5.0,-5.0 L -12.5,0.0 L 5.0,5.0 L 0.0,0.0 z "
         style="fill-rule:evenodd;stroke:#000000;stroke-width:1pt;stroke-opacity:1;fill:#000000;fill-opacity:1"
         transform="scale(0.4) rotate(180) translate(10,0)" />
    </marker>
    <marker
       inkscape:stockid="Arrow1Mstart"
       orient="auto"
       refY="0"
       refX="0"
       id="Arrow1Mstart-3"
       style="overflow:visible"
       inkscape:isstock="true">
      <path
         inkscape:connector-curvature="0"
         id="path839-6"
         d="M 0,0 5,-5 -12.5,0 5,5 Z"
         style="fill:#000000;fill-opacity:1;fill-rule:evenodd;stroke:#000000;stroke-width:1.00000003pt;stroke-opacity:1"
         transform="matrix(0.4,0,0,0.4,4,0)" />
    </marker>
    <marker
       inkscape:stockid="Arrow1Mend"
       orient="auto"
       refY="0"
       refX="0"
       id="Arrow1Mend-7"
       style="overflow:visible"
       inkscape:isstock="true">
      <path
         inkscape:connector-curvature="0"
         id="path842-5"
         d="M 0,0 5,-5 -12.5,0 5,5 Z"
         style="fill:#000000;fill-opacity:1;fill-rule:evenodd;stroke:#000000;stroke-width:1.00000003pt;stroke-opacity:1"
         transform="matrix(-0.4,0,0,-0.4,-4,0)" />
    </marker>
  </defs>
  <sodipodi:namedview
     id="base"
     pagecolor="#ffffff"
     bordercolor="#666666"
     borderopacity="1.0"
     inkscape:pageopacity="0.0"
     inkscape:pageshadow="2"
     inkscape:zoom="0.7"
     inkscape:cx="613.07295"
     inkscape:cy="693.73167"
     inkscape:document-units="mm"
     inkscape:current-layer="layer1"
     showgrid="false"
     inkscape:snap-bbox="true"
     inkscape:snap-bbox-edge-midpoints="true"
     inkscape:snap-bbox-midpoints="true"
     inkscape:window-width="1289"
     inkscape:window-height="835"
     inkscape:window-x="497"
     inkscape:window-y="111"
     inkscape:window-maximized="0" />
  <metadata
     id="metadata5">
    <rdf:RDF>
      <cc:Work
         rdf:about="">
        <dc:format>image/svg+xml</dc:format>
        <dc:type
           rdf:resource="http://purl.org/dc/dcmitype/StillImage" />
        <dc:title></dc:title>
      </cc:Work>
    </rdf:RDF>
  </metadata>
  <g
     inkscape:label="Layer 1"
     inkscape:groupmode="layer"
     id="layer1">
    <rect
       style="fill:none;fill-opacity:1;stroke:#000000;stroke-width:1;stroke-miterlimit:4;stroke-dasharray:none;stroke-opacity:1"
       id="rect10"
       width="198.93704"
       height="98.937042"
       x="39.750198"
       y="45.748749"
       inkscape:export-xdpi="300"
       inkscape:export-ydpi="300" />
    <path
       style="fill:none;stroke:#000000;stroke-width:0.60000003;stroke-linecap:butt;stroke-linejoin:miter;stroke-miterlimit:4;stroke-dasharray:1.80000009,1.80000009;stroke-opacity:1;marker-start:url(#Arrow1Mstart);marker-end:url(#Arrow1Mend);stroke-dashoffset:0"
       d="M 38.672654,150.50666 H 238.67265"
       id="path831"
       inkscape:connector-curvature="0"
       inkscape:export-xdpi="300"
       inkscape:export-ydpi="300" />
    <path
       style="fill:none;stroke:#000000;stroke-width:0.5;stroke-linecap:butt;stroke-linejoin:miter;stroke-miterlimit:4;stroke-dasharray:1.5, 1.5;stroke-dashoffset:0;stroke-opacity:1;marker-start:url(#Arrow1Mstart-3);marker-end:url(#Arrow1Mend-7)"
       d="M 34.443941,45.748749 V 144.58016"
       id="path831-3"
       inkscape:connector-curvature="0"
       inkscape:export-xdpi="300"
       inkscape:export-ydpi="300" />
    <flowRoot
       xml:space="preserve"
       id="flowRoot2850"
       style="font-style:normal;font-weight:normal;font-size:40px;line-height:1.25;font-family:sans-serif;letter-spacing:0px;word-spacing:0px;fill:#000000;fill-opacity:1;stroke:none"
       transform="matrix(0.26458333,0,0,0.26458333,-12.481514,-62.744048)"
       inkscape:export-xdpi="300"
       inkscape:export-ydpi="300"><flowRegion
         id="flowRegion2852"><rect
           id="rect2854"
           width="270"
           height="135.71428"
           x="527.14288"
           y="806.80542" /></flowRegion><flowPara
         id="flowPara2856"
         style="font-size:46.66666794px">4 m</flowPara></flowRoot>    <flowRoot
       xml:space="preserve"
       id="flowRoot2850-5"
       style="font-style:normal;font-weight:normal;font-size:40px;line-height:1.25;font-family:sans-serif;letter-spacing:0px;word-spacing:0px;fill:#000000;fill-opacity:1;stroke:none"
       transform="matrix(0,-0.26458333,0.26458333,0,-192.61403,246.46934)"
       inkscape:export-xdpi="300"
       inkscape:export-ydpi="300"><flowRegion
         id="flowRegion2852-6"><rect
           id="rect2854-2"
           width="270"
           height="135.71428"
           x="527.14288"
           y="806.80542" /></flowRegion><flowPara
         style="font-size:46.66666794px"
         id="flowPara2882">2 m</flowPara></flowRoot>    <g
       id="layer1-9"
       inkscape:label="Layer 1"
       transform="matrix(0.80005259,0,0,0.80005259,134.05656,-61.28598)"
       inkscape:export-xdpi="300"
       inkscape:export-ydpi="300">
      <rect
         ry="3.8877549"
         y="105.34221"
         x="62.366074"
         height="23.812498"
         width="68.413689"
         id="rect815"
         style="opacity:1;fill:#4d4d4d;fill-opacity:1;stroke:none;stroke-width:0.17063591;stroke-miterlimit:4;stroke-dasharray:0.34127184, 0.17063593;stroke-dashoffset:0;stroke-opacity:1" />
      <g
         id="flowRoot817"
         style="font-style:normal;font-weight:normal;font-size:40px;line-height:1.25;font-family:sans-serif;letter-spacing:0px;word-spacing:0px;fill:#d4aa00;fill-opacity:1;stroke:none"
         transform="matrix(0.26458333,0,0,0.26458333,29.482143,59.720237)"
         aria-label="CFDScript">
        <path
           id="path831-36"
           style="font-style:normal;font-variant:normal;font-weight:normal;font-stretch:normal;font-family:Roboto;-inkscape-font-specification:Roboto;fill:#d4aa00"
           d="m 209.93359,222.84673 q -0.52734,4.51172 -3.33984,6.97265 -2.79297,2.44141 -7.44141,2.44141 -5.03906,0 -8.08593,-3.61328 -3.02735,-3.61328 -3.02735,-9.66797 v -2.73437 q 0,-3.96485 1.40625,-6.97266 1.42578,-3.00781 4.02344,-4.60938 2.59766,-1.62109 6.01562,-1.62109 4.53125,0 7.26563,2.53906 2.73437,2.51953 3.18359,6.99219 h -3.76953 q -0.48828,-3.39844 -2.1289,-4.92187 -1.6211,-1.52344 -4.55079,-1.52344 -3.59375,0 -5.64453,2.65625 -2.03125,2.65625 -2.03125,7.55859 v 2.75391 q 0,4.6289 1.9336,7.36328 1.93359,2.73437 5.41015,2.73437 3.125,0 4.78516,-1.40625 1.67969,-1.42578 2.22656,-4.9414 z"
           inkscape:connector-curvature="0" />
        <path
           id="path833"
           style="font-style:normal;font-variant:normal;font-weight:normal;font-stretch:normal;font-family:Roboto;-inkscape-font-specification:Roboto;fill:#d4aa00"
           d="m 230.71484,219.31157 h -11.93359 v 12.5586 h -3.75 v -28.4375 h 17.61719 v 3.08593 h -13.86719 v 9.72657 h 11.93359 z"
           inkscape:connector-curvature="0" />
        <path
           id="path835"
           style="font-style:normal;font-variant:normal;font-weight:normal;font-stretch:normal;font-family:Roboto;-inkscape-font-specification:Roboto;fill:#d4aa00"
           d="m 237.14062,231.87017 v -28.4375 h 8.02735 q 3.71094,0 6.5625,1.64062 2.85156,1.64063 4.39453,4.66797 1.5625,3.02734 1.58203,6.95312 v 1.81641 q 0,4.02344 -1.5625,7.05078 -1.54297,3.02735 -4.43359,4.64844 -2.8711,1.62109 -6.69922,1.66016 z m 3.75,-25.35157 v 22.28516 h 3.94532 q 4.33593,0 6.73828,-2.69531 2.42187,-2.69532 2.42187,-7.67578 v -1.66016 q 0,-4.84375 -2.28515,-7.51953 -2.26563,-2.69531 -6.44532,-2.73438 z"
           inkscape:connector-curvature="0" />
        <path
           id="path837"
           style="font-style:normal;font-variant:normal;font-weight:normal;font-stretch:normal;font-family:Roboto;-inkscape-font-specification:Roboto;fill:#d4aa00"
           d="m 271.76953,219.19438 q -4.82422,-1.38671 -7.03125,-3.39843 -2.1875,-2.03125 -2.1875,-5 0,-3.35938 2.67578,-5.54688 2.69531,-2.20703 6.99219,-2.20703 2.92969,0 5.21484,1.13281 2.30469,1.13282 3.55469,3.125 1.26953,1.99219 1.26953,4.35547 h -3.76953 q 0,-2.57812 -1.64062,-4.04297 -1.64063,-1.48437 -4.62891,-1.48437 -2.77344,0 -4.33594,1.23047 -1.54297,1.21093 -1.54297,3.3789 0,1.73828 1.46485,2.94922 1.48437,1.19141 5.01953,2.1875 3.55469,0.9961 5.54687,2.20703 2.01172,1.19141 2.96875,2.79297 0.97657,1.60156 0.97657,3.76953 0,3.45703 -2.69532,5.54688 -2.69531,2.07031 -7.20703,2.07031 -2.92969,0 -5.46875,-1.11328 -2.53906,-1.13281 -3.92578,-3.08594 -1.36719,-1.95312 -1.36719,-4.43359 h 3.76953 q 0,2.57812 1.89454,4.08203 1.91406,1.48437 5.09765,1.48437 2.96875,0 4.55078,-1.21093 1.58203,-1.21094 1.58203,-3.30078 0,-2.08985 -1.46484,-3.22266 -1.46484,-1.15234 -5.3125,-2.26563 z"
           inkscape:connector-curvature="0" />
        <path
           id="path839-0"
           style="font-style:normal;font-variant:normal;font-weight:normal;font-stretch:normal;font-family:Roboto;-inkscape-font-specification:Roboto;fill:#d4aa00"
           d="m 295.05078,229.31157 q 1.93359,0 3.37891,-1.17187 1.44531,-1.17188 1.60156,-2.92969 h 3.41797 q -0.0977,1.81641 -1.25,3.45703 -1.15235,1.64063 -3.08594,2.61719 -1.91406,0.97656 -4.0625,0.97656 -4.31641,0 -6.875,-2.87109 -2.53906,-2.89063 -2.53906,-7.89063 v -0.60547 q 0,-3.08593 1.13281,-5.48828 1.13281,-2.40234 3.24219,-3.73047 2.1289,-1.32812 5.01953,-1.32812 3.55469,0 5.89844,2.1289 2.36328,2.12891 2.51953,5.52735 h -3.41797 q -0.15625,-2.05078 -1.5625,-3.35938 -1.38672,-1.32812 -3.4375,-1.32812 -2.75391,0 -4.27734,1.99219 -1.50391,1.97265 -1.50391,5.72265 v 0.6836 q 0,3.65234 1.50391,5.625 1.5039,1.97265 4.29687,1.97265 z"
           inkscape:connector-curvature="0" />
        <path
           id="path841"
           style="font-style:normal;font-variant:normal;font-weight:normal;font-stretch:normal;font-family:Roboto;-inkscape-font-specification:Roboto;fill:#d4aa00"
           d="m 317.72656,213.97954 q -0.82031,-0.13672 -1.77734,-0.13672 -3.55469,0 -4.82422,3.02735 v 15 h -3.61328 v -21.13282 h 3.51562 l 0.0586,2.44141 q 1.77734,-2.83203 5.03906,-2.83203 1.05469,0 1.60156,0.27344 z"
           inkscape:connector-curvature="0" />
        <path
           id="path843"
           style="font-style:normal;font-variant:normal;font-weight:normal;font-stretch:normal;font-family:Roboto;-inkscape-font-specification:Roboto;fill:#d4aa00"
           d="m 324.95312,231.87017 h -3.61328 v -21.13282 h 3.61328 z m -3.90625,-26.73829 q 0,-0.8789 0.52735,-1.48437 0.54687,-0.60547 1.60156,-0.60547 1.05469,0 1.60156,0.60547 0.54688,0.60547 0.54688,1.48437 0,0.87891 -0.54688,1.46485 -0.54687,0.58594 -1.60156,0.58594 -1.05469,0 -1.60156,-0.58594 -0.52735,-0.58594 -0.52735,-1.46485 z"
           inkscape:connector-curvature="0" />
        <path
           id="path845"
           style="font-style:normal;font-variant:normal;font-weight:normal;font-stretch:normal;font-family:Roboto;-inkscape-font-specification:Roboto;fill:#d4aa00"
           d="m 348.56641,221.53813 q 0,4.82422 -2.20704,7.77344 -2.20703,2.94922 -5.97656,2.94922 -3.84765,0 -6.05469,-2.44141 v 10.17579 h -3.61328 v -29.25782 h 3.30078 l 0.17579,2.34375 q 2.20703,-2.73437 6.13281,-2.73437 3.80859,0 6.01562,2.87109 2.22657,2.8711 2.22657,7.98828 z m -3.61329,-0.41015 q 0,-3.57422 -1.52343,-5.64453 -1.52344,-2.07032 -4.17969,-2.07032 -3.28125,0 -4.92188,2.91016 v 10.09766 q 1.6211,2.89062 4.96094,2.89062 2.59766,0 4.1211,-2.05078 1.54296,-2.07031 1.54296,-6.13281 z"
           inkscape:connector-curvature="0" />
        <path
           sodipodi:nodetypes="cccccscsccscscccccc"
           inkscape:connector-curvature="0"
           id="path847"
           style="font-style:normal;font-variant:normal;font-weight:normal;font-stretch:normal;font-family:Roboto;-inkscape-font-specification:Roboto;fill:#d4aa00"
           d="m 358.03906,205.62017 v 5.11718 h 3.94531 v 2.79297 h -3.94531 v 31.79329 c 0,0.84636 0.17578,1.48438 0.52735,1.91406 0.35156,0.41667 0.95052,0.625 1.79687,0.625 0.41667,0 0.98958,-0.0781 1.71875,-0.23437 v 2.92969 c -0.95052,0.26042 -1.875,0.39062 -2.77344,0.39062 -1.61458,0 -2.83203,-0.48828 -3.65234,-1.46484 -0.82031,-0.97656 -1.23047,-2.36328 -1.23047,-4.16016 v -31.79329 h -3.84766 v -2.79297 h 3.84766 v -5.11718 z" />
      </g>
      <path
         inkscape:transform-center-y="-1.072763"
         inkscape:transform-center-x="1.0727621"
         d="M 78.055129,123.26087 64.18625,119.54472 74.338974,109.39199 Z"
         inkscape:randomized="0"
         inkscape:rounded="0"
         inkscape:flatsided="true"
         sodipodi:arg2="1.8325957"
         sodipodi:arg1="0.78539816"
         sodipodi:r2="4.1448326"
         sodipodi:r1="8.2896643"
         sodipodi:cy="117.39919"
         sodipodi:cx="72.193451"
         sodipodi:sides="3"
         id="path829"
         style="opacity:1;fill:#d4aa00;fill-opacity:1;stroke:none;stroke-width:0.5;stroke-miterlimit:4;stroke-dasharray:1.00000001, 0.50000001;stroke-dashoffset:0;stroke-opacity:1"
         sodipodi:type="star" />
    </g>
    <flowRoot
       xml:space="preserve"
       id="flowRoot2850-6"
       style="font-style:normal;font-weight:normal;font-size:40px;line-height:1.25;font-family:sans-serif;letter-spacing:0px;word-spacing:0px;fill:#000000;fill-opacity:1;stroke:none"
       transform="matrix(0.26458333,0,0,0.26458333,-29.105371,-80.898431)"
       inkscape:export-xdpi="300"
       inkscape:export-ydpi="300"><flowRegion
         id="flowRegion2852-2"><rect
           id="rect2854-6"
           width="605.71429"
           height="68.571434"
           x="527.14288"
           y="806.80542" /></flowRegion><flowPara
         id="flowPara2856-1"
         style="font-size:40px">T = 200 °C</flowPara></flowRoot>    <flowRoot
       xml:space="preserve"
       id="flowRoot2850-6-0"
       style="font-style:normal;font-weight:normal;font-size:40px;line-height:1.25;font-family:sans-serif;letter-spacing:0px;word-spacing:0px;fill:#000000;fill-opacity:1;stroke:none"
       transform="matrix(0,-0.26458333,0.26458333,0,-173.80313,262.31921)"
       inkscape:export-xdpi="300"
       inkscape:export-ydpi="300"><flowRegion
         id="flowRegion2852-2-2"><rect
           id="rect2854-6-3"
           width="605.71429"
           height="68.571434"
           x="527.14288"
           y="806.80542" /></flowRegion><flowPara
         id="flowPara2856-1-7"
         style="font-size:40px">Symmetry</flowPara></flowRoot>    <flowRoot
       xml:space="preserve"
       id="flowRoot2850-6-8"
       style="font-style:normal;font-weight:normal;font-size:40px;line-height:1.25;font-family:sans-serif;letter-spacing:0px;word-spacing:0px;fill:#000000;fill-opacity:1;stroke:none"
       transform="matrix(0,0.26458333,-0.26458333,0,450.6527,-73.106821)"
       inkscape:export-xdpi="300"
       inkscape:export-ydpi="300"><flowRegion
         id="flowRegion2852-2-9"><rect
           id="rect2854-6-7"
           width="605.71429"
           height="68.571434"
           x="527.14288"
           y="806.80542" /></flowRegion><flowPara
         id="flowPara2856-1-3"
         style="font-size:40px">T = 200 °C</flowPara></flowRoot>    <flowRoot
       xml:space="preserve"
       id="flowRoot3083"
       style="fill:black;fill-opacity:1;stroke:none;font-family:sans-serif;font-style:normal;font-weight:normal;font-size:40px;line-height:1.25;letter-spacing:0px;word-spacing:0px"><flowRegion
         id="flowRegion3085"><rect
           id="rect3087"
           width="715.71429"
           height="334.28571"
           x="367.14285"
           y="192.51968" /></flowRegion><flowPara
         id="flowPara3089"></flowPara></flowRoot>    <flowRoot
       xml:space="preserve"
       id="flowRoot2850-6-0-5"
       style="font-style:normal;font-weight:normal;font-size:40px;line-height:1.25;font-family:sans-serif;letter-spacing:0px;word-spacing:0px;fill:#000000;fill-opacity:1;stroke:none"
       transform="matrix(0.26458333,0,0,0.26458333,-51.091109,-165.96911)"
       inkscape:export-xdpi="300"
       inkscape:export-ydpi="300"><flowRegion
         id="flowRegion2852-2-2-9"><rect
           id="rect2854-6-3-2"
           width="605.71429"
           height="68.571434"
           x="527.14288"
           y="806.80542" /></flowRegion><flowPara
         id="flowPara2856-1-7-2"
         style="font-size:40px">Convective Cooling</flowPara></flowRoot>    <flowRoot
       xml:space="preserve"
       id="flowRoot3091"
       style="font-style:normal;font-weight:normal;font-size:40px;line-height:1.25;font-family:sans-serif;letter-spacing:0px;word-spacing:0px;fill:#000000;fill-opacity:1;stroke:none"
       transform="matrix(0.26458333,0,0,0.26458333,140.11451,43.566676)"
       inkscape:export-xdpi="300"
       inkscape:export-ydpi="300"><flowRegion
         id="flowRegion3093"><rect
           id="rect3095"
           width="350"
           height="54.285706"
           x="-144.28572"
           y="169.66254" /></flowRegion><flowPara
         id="flowPara3097"
         style="font-size:46.66666794px">∇<flowSpan
   style="font-size:64.99999762%;baseline-shift:super"
   id="flowSpan3109">2</flowSpan><flowSpan
   style="font-style:italic;font-variant:normal;font-weight:normal;font-stretch:normal;font-size:46.66666794px;font-family:sans-serif;-inkscape-font-specification:'sans-serif Italic'"
   id="flowSpan3105">T</flowSpan>(<flowSpan
   style="font-style:italic;font-variant:normal;font-weight:normal;font-stretch:normal;font-size:46.66666794px;font-family:sans-serif;-inkscape-font-specification:'sans-serif Italic'"
   id="flowSpan3101">x</flowSpan>,<flowSpan
   style="font-style:italic;font-variant:normal;font-weight:normal;font-stretch:normal;font-size:46.66666794px;font-family:sans-serif;-inkscape-font-specification:'sans-serif Italic'"
   id="flowSpan3103">y</flowSpan>) = 0</flowPara></flowRoot>  </g>
</svg>
